:SAMPLES-PER-SECOND 30
:FRAME-RANGE 1-2045
:FULLY-SPECIFIED
:DEGREES
1279
root  11.1695 37.2193 -5.81327 24.4937 55.1374 12.457
RightUpLeg  -42.0791 -9.16615 -17.6042
RightLeg  29.8798 4.38813 2.48874
RightFoot  -0.242908 -1.48066 15.1413
RightToes  5.82063e-011 0 -3.6325e-017
Spine  27.9999 -1.80009 3.60889
Spine1  -1.83061 -2.36192 7.22474
HEad  -17.9624 -4.30042 -6.25924
LeftShoulder1  1.63238 -3.24448 -17.5556
LeftArm  -14.7946 -27.6764 -20.1222
LeftForeArm  -9.50585 -54.4667 -16.6365
LeftHand  0.667935 1.82941 -22.2446
RightShoulder  10.0479 17.0633 42.5236
RightArm  -2.17994 5.4533 18.6243
RightForeArm  -24.7581 66.7052 30.4722
RightHand  0.0786258 -4.57912 16.7129
LeftUpLeg  -30.8451 21.2288 6.48799
LeftLeg  16.8664 -14.3054 -4.74652
LeftFoot  -3.45405 1.73885 -24.5817
LeftToes  -3.90176e-010 -2.48536e-010 1.05482e-011
1280
root  11.7356 37.2897 -6.32523 20.9284 52.3882 9.27878
RightUpLeg  -40.821 -7.23931 -17.1077
RightLeg  27.4267 4.48113 2.29548
RightFoot  1.36659 -1.69443 15.2185
RightToes  5.82063e-011 0 -3.6325e-017
Spine  28.0687 -1.75136 3.65202
Spine1  -0.573147 -2.00345 5.78577
HEad  -17.2478 -2.14271 -5.63826
LeftShoulder1  1.61463 -2.84559 -18.8928
LeftArm  -11.8484 -19.0965 -18.2486
LeftForeArm  -10.8205 -55.1642 -17.1926
LeftHand  0.690063 1.86764 -23.208
RightShoulder  9.92396 16.6396 42.9133
RightArm  -0.298653 5.14316 19.25
RightForeArm  -19.3446 69.1788 34.8214
RightHand  -0.0580226 -5.49395 14.9353
LeftUpLeg  -29.5877 19.4509 7.98775
LeftLeg  18.0079 -11.6876 -3.93589
LeftFoot  -1.08045 1.92464 -21.1528
LeftToes  -3.90176e-010 -2.48536e-010 1.05482e-011
1281
root  12.1904 37.2644 -6.98861 17.4203 47.4128 5.29587
RightUpLeg  -41.0165 -3.85346 -15.7664
RightLeg  24.1417 3.58713 1.53784
RightFoot  4.13001 -2.01959 14.9988
RightToes  5.82063e-011 0 -3.6325e-017
Spine  28.5729 -1.22972 3.5967
Spine1  -0.205027 -1.18625 4.05057
HEad  -16.489 0.864397 -4.69561
LeftShoulder1  1.61281 -2.48845 -20.484
LeftArm  -8.50459 -10.8695 -16.4983
LeftForeArm  -14.6563 -52.6532 -15.8865
LeftHand  0.789083 1.63843 -24.733
RightShoulder  10.6275 17.9994 43.037
RightArm  1.60236 6.81865 20.1877
RightForeArm  -13.1053 71.0697 38.9778
RightHand  -0.203456 -6.76202 12.7523
LeftUpLeg  -30.0105 21.1066 9.56659
LeftLeg  22.8668 -8.3531 -3.52169
LeftFoot  -2.99801 1.45864 -19.5865
LeftToes  -3.90176e-010 -2.48536e-010 1.05482e-011
1282
root  12.4939 37.3328 -7.59192 16.3914 42.1347 3.22891
RightUpLeg  -41.2362 -1.46507 -14.9417
RightLeg  19.0805 4.3296 1.44502
RightFoot  7.47277 -2.4518 15.033
RightToes  5.82063e-011 0 -3.6325e-017
Spine  28.0362 -0.30833 2.70967
Spine1  0.776223 -0.101042 1.85412
HEad  -16.4165 2.96311 -3.11059
LeftShoulder1  1.59874 -2.18214 -21.7632
LeftArm  -7.24147 -6.71998 -16.9776
LeftForeArm  -20.4159 -47.8329 -13.7029
LeftHand  0.726401 1.93353 -24.853
RightShoulder  12.0499 20.9813 42.7857
RightArm  2.24912 8.52659 20.8408
RightForeArm  -8.5191 72.5742 43.3023
RightHand  -0.276906 -7.99962 9.73384
LeftUpLeg  -30.3616 24.7828 9.37327
LeftLeg  25.0561 -6.7142 -3.08291
LeftFoot  -4.00304 1.22506 -18.5903
LeftToes  -3.90176e-010 -2.48536e-010 1.05482e-011
1283
root  12.75 37.4904 -8.0878 16.4712 38.6099 2.73813
RightUpLeg  -39.8429 -4.05927 -12.3325
RightLeg  12.603 9.54831 0.795164
RightFoot  10.4047 -3.03 16.0571
RightToes  5.82063e-011 0 -3.6325e-017
Spine  27.3245 -0.0699469 2.03391
Spine1  1.33617 0.899784 -1.72245
HEad  -15.7439 3.23679 -1.34043
LeftShoulder1  1.66561 -2.08475 -23.5464
LeftArm  -8.71801 -5.37463 -17.7375
LeftForeArm  -21.2751 -45.6417 -12.7637
LeftHand  0.713341 1.90066 -24.1899
RightShoulder  12.8663 23.0656 42.0023
RightArm  1.81881 10.2971 20.9888
RightForeArm  -11.3977 71.9556 41.5083
RightHand  -0.293415 -8.62717 8.35154
LeftUpLeg  -30.3608 28.0644 8.00902
LeftLeg  25.2055 -6.40988 -2.94705
LeftFoot  -4.27034 1.13218 -17.7896
LeftToes  -3.90176e-010 -2.48536e-010 1.05482e-011
1284
root  12.9321 37.6339 -8.54642 16.6806 37.4471 2.28125
RightUpLeg  -38.418 -8.03139 -10.3073
RightLeg  7.77244 6.34508 -0.415813
RightFoot  11.797 -3.06527 15.2942
RightToes  5.82063e-011 0 -3.6325e-017
Spine  26.9212 -0.0554687 1.70193
Spine1  0.88055 1.07485 -3.11159
HEad  -14.9201 2.01142 0.265517
LeftShoulder1  1.67946 -1.93257 -24.6883
LeftArm  -9.41999 -5.12414 -19.3666
LeftForeArm  -19.2111 -46.5672 -13.056
LeftHand  0.737537 1.70941 -23.6416
RightShoulder  12.7134 23.4567 40.7982
RightArm  1.28111 11.6735 20.3117
RightForeArm  -18.8438 68.755 33.8606
RightHand  -0.284067 -8.06806 9.77026
LeftUpLeg  -31.1123 30.0003 6.74176
LeftLeg  24.9504 -7.0127 -3.21552
LeftFoot  -4.20282 1.1094 -17.272
LeftToes  -3.90176e-010 -2.48536e-010 1.05482e-011
1285
root  13.0613 37.8182 -8.91916 17.0223 37.5269 2.2196
RightUpLeg  -37.0677 -11.5164 -10.6839
RightLeg  5.5296 -2.81429 0.426378
RightFoot  9.78786 -2.51686 13.7991
RightToes  5.82063e-011 0 -3.6325e-017
Spine  26.3936 0.203491 1.3358
Spine1  0.65014 0.993423 -2.77166
HEad  -13.7956 -0.242527 1.91752
LeftShoulder1  1.71443 -1.92444 -25.4093
LeftArm  -8.21405 -7.20293 -22.2472
LeftForeArm  -17.1141 -47.7269 -13.4639
LeftHand  0.756662 1.50346 -22.9108
RightShoulder  11.9199 22.5224 39.5342
RightArm  0.306704 11.5929 18.5585
RightForeArm  -23.0721 66.1154 29.3884
RightHand  -0.228952 -7.08453 11.9664
LeftUpLeg  -31.5843 30.7555 5.47044
LeftLeg  23.7708 -7.66305 -3.35108
LeftFoot  -3.5722 1.18257 -16.9959
LeftToes  -3.90176e-010 -2.48536e-010 1.05482e-011
